<svg width="606" height="404" viewBox="0 0 606 404" fill="none" xmlns="http://www.w3.org/2000/svg">
<path d="M123.548 393.166V367.21H135.248C135.656 367.21 136.16 367.234 136.76 367.282C137.384 367.33 137.996 367.39 138.596 367.462C140.444 367.774 141.884 368.53 142.916 369.73C143.972 370.906 144.5 372.406 144.5 374.23C144.5 375.502 144.176 376.642 143.528 377.65C142.88 378.634 141.992 379.342 140.864 379.774C143.696 381.19 145.112 383.302 145.112 386.11C145.112 388.39 144.284 390.154 142.628 391.402C141.788 392.05 140.864 392.506 139.856 392.77C138.848 393.034 137.504 393.166 135.824 393.166H123.548ZM132.044 382.222V387.334H132.98C135.212 387.334 136.328 386.446 136.328 384.67C136.328 383.566 135.872 382.834 134.96 382.474C134.6 382.33 134.012 382.258 133.196 382.258L132.044 382.222ZM132.188 373.006V377.542H132.836H133.556C134.348 377.542 134.972 377.35 135.428 376.966C135.884 376.582 136.112 376.03 136.112 375.31C136.112 374.47 135.872 373.87 135.392 373.51C135.128 373.318 134.828 373.186 134.492 373.114C134.156 373.042 133.64 373.006 132.944 373.006H132.188ZM157.276 380.206C157.276 378.43 157.624 376.678 158.32 374.95C159.016 373.198 159.964 371.734 161.164 370.558C163.732 368.014 167.02 366.742 171.028 366.742C175.084 366.742 178.372 368.014 180.892 370.558C182.116 371.806 183.076 373.27 183.772 374.95C184.468 376.63 184.816 378.382 184.816 380.206C184.816 382.006 184.468 383.758 183.772 385.462C183.1 387.142 182.14 388.618 180.892 389.89C178.372 392.41 175.084 393.67 171.028 393.67C167.044 393.67 163.756 392.41 161.164 389.89C159.964 388.69 159.016 387.214 158.32 385.462C157.624 383.71 157.276 381.958 157.276 380.206ZM171.028 374.266C169.468 374.266 168.16 374.83 167.104 375.958C166.072 377.062 165.556 378.478 165.556 380.206C165.556 381.91 166.072 383.326 167.104 384.454C168.136 385.582 169.444 386.146 171.028 386.146C172.588 386.146 173.884 385.582 174.916 384.454C175.948 383.326 176.464 381.91 176.464 380.206C176.464 378.502 175.948 377.086 174.916 375.958C173.884 374.83 172.588 374.266 171.028 374.266ZM198.541 374.986L200.485 367.21H218.017V375.094H212.725V392.878L204.157 393.454V374.986H198.541ZM253.874 366.958V383.266C253.874 385.354 253.682 386.998 253.298 388.198C252.746 389.926 251.558 391.282 249.734 392.266C247.91 393.25 245.654 393.742 242.966 393.742C240.302 393.742 238.07 393.262 236.27 392.302C234.494 391.342 233.282 389.974 232.634 388.198C232.274 387.07 232.094 385.426 232.094 383.266V367.462L240.662 366.958V382.978C240.662 383.362 240.662 383.674 240.662 383.914C240.662 384.13 240.71 384.478 240.806 384.958C240.926 385.414 241.154 385.762 241.49 386.002C241.85 386.218 242.354 386.326 243.002 386.326C243.674 386.326 244.166 386.218 244.478 386.002C244.79 385.786 244.994 385.486 245.09 385.102C245.186 384.718 245.246 384.406 245.27 384.166C245.294 383.902 245.306 383.506 245.306 382.978V367.462L253.874 366.958ZM285.748 366.958L287.08 375.31C286.456 374.998 285.844 374.77 285.244 374.626C284.668 374.482 284.056 374.41 283.408 374.41C281.296 374.41 279.64 374.938 278.44 375.994C277.264 377.026 276.676 378.466 276.676 380.314C276.676 382.114 277.252 383.53 278.404 384.562C279.556 385.594 281.152 386.11 283.192 386.11C283.864 386.11 284.5 386.038 285.1 385.894C285.7 385.75 286.42 385.486 287.26 385.102L286.252 393.274C284.644 393.61 283.108 393.778 281.644 393.778C277.684 393.778 274.36 392.494 271.672 389.926C268.984 387.358 267.64 384.166 267.64 380.35C267.64 376.438 269.02 373.186 271.78 370.594C274.54 368.002 278.02 366.706 282.22 366.706C283.252 366.706 284.428 366.79 285.748 366.958ZM300.498 392.77L309.282 367.21H318.966L327.822 392.77L319.038 393.562L317.958 389.062H310.29L309.246 393.562L300.498 392.77ZM314.142 373.546L311.766 382.726H316.518L314.142 373.546ZM338.926 374.986L340.87 367.21H358.402V375.094H353.11V392.878L344.542 393.454V374.986H338.926ZM394.258 366.958V383.266C394.258 385.354 394.066 386.998 393.682 388.198C393.13 389.926 391.942 391.282 390.118 392.266C388.294 393.25 386.038 393.742 383.35 393.742C380.686 393.742 378.454 393.262 376.654 392.302C374.878 391.342 373.666 389.974 373.018 388.198C372.658 387.07 372.478 385.426 372.478 383.266V367.462L381.046 366.958V382.978C381.046 383.362 381.046 383.674 381.046 383.914C381.046 384.13 381.094 384.478 381.19 384.958C381.31 385.414 381.538 385.762 381.874 386.002C382.234 386.218 382.738 386.326 383.386 386.326C384.058 386.326 384.55 386.218 384.862 386.002C385.174 385.786 385.378 385.486 385.474 385.102C385.57 384.718 385.63 384.406 385.654 384.166C385.678 383.902 385.69 383.506 385.69 382.978V367.462L394.258 366.958ZM408.494 385.498V379.882H420.266V385.498H408.494ZM435.607 392.77L436.867 385.894L437.947 386.074L439.603 386.362C440.563 386.53 441.475 386.614 442.339 386.614C444.379 386.614 445.399 386.098 445.399 385.066C445.399 384.658 445.243 384.334 444.931 384.094C444.619 383.83 443.995 383.518 443.059 383.158C441.667 382.678 440.623 382.186 439.927 381.682L439.315 381.25L439.027 381.034C438.811 380.842 438.451 380.506 437.947 380.026C437.587 379.69 437.299 379.39 437.083 379.126C436.699 378.646 436.399 378.046 436.183 377.326C435.967 376.582 435.859 375.802 435.859 374.986C435.859 372.538 436.807 370.534 438.703 368.974C440.599 367.414 443.047 366.634 446.047 366.634L448.639 366.742C449.983 366.862 451.495 367.174 453.175 367.678L452.167 374.662L450.763 374.266C450.115 374.122 449.467 374.002 448.819 373.906C448.195 373.81 447.691 373.762 447.307 373.762C446.875 373.762 446.479 373.774 446.119 373.798C445.759 373.798 445.351 373.882 444.895 374.05C444.343 374.338 444.067 374.698 444.067 375.13C444.067 375.346 444.127 375.538 444.247 375.706C444.391 375.85 444.631 376.018 444.967 376.21L446.083 376.786L447.307 377.362L448.207 377.83L448.891 378.226C449.539 378.634 450.103 379.018 450.583 379.378C451.087 379.738 451.435 380.002 451.627 380.17C452.275 380.746 452.803 381.538 453.211 382.546C453.619 383.554 453.823 384.538 453.823 385.498C453.823 386.578 453.583 387.658 453.103 388.738C452.623 389.794 451.963 390.682 451.123 391.402C449.395 392.986 446.707 393.778 443.059 393.778C441.739 393.778 440.527 393.706 439.423 393.562C438.319 393.418 437.047 393.154 435.607 392.77ZM468.622 393.454V367.21H477.37C479.05 367.21 480.214 367.258 480.862 367.354C481.534 367.45 482.362 367.714 483.346 368.146C484.906 368.818 486.118 369.862 486.982 371.278C487.846 372.694 488.278 374.398 488.278 376.39C488.278 378.31 487.774 380.038 486.766 381.574C485.758 383.11 484.402 384.214 482.698 384.886C481.666 385.294 480.082 385.498 477.946 385.498H477.73L477.19 385.462V392.878L468.622 393.454ZM477.19 373.618V379.234H477.658C478.282 379.234 478.774 379.198 479.134 379.126C480.382 378.814 481.006 377.938 481.006 376.498C481.006 374.602 480.046 373.654 478.126 373.654L477.658 373.618H477.19Z" fill="#306E79"/>
<path d="M380.945 349.166V266.251H418.32C419.623 266.251 421.233 266.328 423.15 266.481C425.143 266.635 427.098 266.826 429.015 267.056C434.918 268.053 439.518 270.468 442.815 274.301C446.188 278.058 447.875 282.85 447.875 288.676C447.875 292.74 446.84 296.381 444.77 299.601C442.7 302.745 439.863 305.006 436.26 306.386C445.307 310.91 449.83 317.656 449.83 326.626C449.83 333.91 447.185 339.545 441.895 343.531C439.212 345.601 436.26 347.058 433.04 347.901C429.82 348.745 425.527 349.166 420.16 349.166H380.945ZM408.085 314.206V330.536H411.075C418.205 330.536 421.77 327.7 421.77 322.026C421.77 318.5 420.313 316.161 417.4 315.011C416.25 314.551 414.372 314.321 411.765 314.321L408.085 314.206ZM408.545 284.766V299.256H410.615H412.915C415.445 299.256 417.438 298.643 418.895 297.416C420.352 296.19 421.08 294.426 421.08 292.126C421.08 289.443 420.313 287.526 418.78 286.376C417.937 285.763 416.978 285.341 415.905 285.111C414.832 284.881 413.183 284.766 410.96 284.766H408.545ZM452.348 349.166V266.251H502.603L507.778 288.676H479.718V296.956H498.233V316.966H479.718V326.741H509.388L503.868 349.166H452.348ZM508.999 347.901L517.049 266.251H544.419L556.954 299.486L569.374 266.251H596.744L604.794 347.901L577.539 350.431L573.744 308.111L556.954 351.351L540.049 308.111L536.139 350.431L508.999 347.901Z" fill="#04C7D1"/>
<path d="M290.965 286.366V260.721L315.92 259.111V345.246L292.69 347.086V339.611C289.01 344.748 283.758 347.316 276.935 347.316C268.885 347.316 262.253 344.326 257.04 338.346C251.827 332.366 249.22 324.7 249.22 315.346C249.22 305.61 251.903 297.598 257.27 291.311C262.637 285.025 269.46 281.881 277.74 281.881C282.8 281.881 287.208 283.376 290.965 286.366ZM282.34 304.536C279.58 304.536 277.318 305.495 275.555 307.411C273.868 309.251 273.025 311.628 273.025 314.541C273.025 317.531 273.868 319.946 275.555 321.786C277.242 323.626 279.503 324.546 282.34 324.546C285.023 324.546 287.247 323.626 289.01 321.786C290.773 319.946 291.655 317.531 291.655 314.541C291.655 311.628 290.773 309.251 289.01 307.411C287.323 305.495 285.1 304.536 282.34 304.536ZM319.642 315.116C319.642 309.903 320.371 305.495 321.827 301.891C323.361 298.288 325.929 294.8 329.532 291.426C335.819 285.37 343.639 282.341 352.992 282.341C362.882 282.341 370.932 285.408 377.142 291.541C383.429 297.598 386.572 305.456 386.572 315.116C386.572 324.776 383.467 332.635 377.257 338.691C371.047 344.748 362.997 347.776 353.107 347.776C343.217 347.776 335.167 344.748 328.957 338.691C322.747 332.635 319.642 324.776 319.642 315.116ZM353.107 304.421C350.194 304.421 347.779 305.418 345.862 307.411C343.946 309.405 342.987 311.973 342.987 315.116C342.987 318.26 343.907 320.828 345.747 322.821C347.587 324.815 350.041 325.811 353.107 325.811C356.021 325.811 358.397 324.815 360.237 322.821C362.077 320.828 362.997 318.26 362.997 315.116C362.997 311.973 362.077 309.405 360.237 307.411C358.397 305.418 356.021 304.421 353.107 304.421Z" fill="#FF5B1F"/>
<path d="M4.945 349.166V267.056L32.315 265.446V325.476H59.8L54.51 349.166H4.945ZM64.6911 350.086V267.056L92.0611 265.446V348.246L64.6911 350.086ZM170.746 273.841L157.061 294.196C152.078 290.746 147.286 289.021 142.686 289.021C137.32 289.021 132.95 290.746 129.576 294.196C126.203 297.646 124.516 302.131 124.516 307.651C124.516 313.861 126.28 318.691 129.806 322.141C133.41 325.515 138.393 327.201 144.756 327.201C145.983 327.201 147.095 327.048 148.091 326.741V318.461H134.751L139.466 300.291H172.931V343.646L168.216 346.176C161.47 349.243 153.803 350.776 145.216 350.776C130.19 350.776 118.383 346.176 109.796 336.976C106.27 333.22 103.433 328.658 101.286 323.291C99.1396 317.925 98.0662 312.711 98.0662 307.651C98.0662 295.691 102.36 285.533 110.946 277.176C119.533 268.82 129.998 264.641 142.341 264.641C145.101 264.641 148.015 264.948 151.081 265.561C154.148 266.175 157.138 267.056 160.051 268.206C163.041 269.28 166.606 271.158 170.746 273.841ZM176.227 347.901L204.287 266.251H235.222L263.512 347.901L235.452 350.431L232.002 336.056H207.507L204.172 350.431L176.227 347.901ZM219.812 286.491L212.222 315.816H227.402L219.812 286.491Z" fill="#FEC34B"/>
<path fill-rule="evenodd" clip-rule="evenodd" d="M306 112.166C289.5 110.833 251.3 120.066 230.5 167.666C225.833 179 215.5 216.666 223.5 231.666C229 240.166 237 244.666 251.5 244.666C271.5 244.666 278 239.666 282.5 231.666C284.5 228.111 292.5 218.166 302.5 218.166L382 174.666C375.5 153.333 351.6 112.166 306 112.166ZM285 143.166H302V160.166H285V143.166ZM285 169.166H302V186.166H285V169.166ZM329 143.166H312V160.166H329V143.166ZM312 169.166H329V186.166H312V169.166Z" fill="#FD9405"/>
<path d="M341 183.666C311.217 195.038 302.667 210.666 302.5 218.166C323.5 218.166 328 231.666 333 237.166C338 242.666 347.987 245 357.5 245C371.5 245 375.5 242.166 375.5 242.166C383 238 390.8 232.166 390 214.166C389.2 196.166 384.667 180.5 382 174.666C381.333 173.833 368.5 173.166 341 183.666Z" fill="#FF5B1F"/>
<path d="M319.9 38.5802C314.232 60.7883 322.112 81.975 337.5 85.902C352.888 89.8291 369.957 75.0094 375.624 52.8014C381.292 30.5934 373.412 9.40669 358.024 5.47963C342.636 1.55256 325.567 16.3722 319.9 38.5802Z" fill="#FF5B1F"/>
<path d="M290.631 38.7466C296.298 60.9546 288.418 82.1413 273.03 86.0683C257.642 89.9954 240.573 75.1758 234.906 52.9677C229.238 30.7597 237.118 9.57301 252.506 5.64595C267.894 1.71888 284.963 16.5385 290.631 38.7466Z" fill="#7CE3E8"/>
<path d="M224.602 100.361C236.157 120.156 234.404 142.692 220.689 150.698C206.973 158.704 186.488 149.148 174.934 129.353C163.38 109.559 165.132 87.0221 178.848 79.0162C192.563 71.0103 213.048 80.5668 224.602 100.361Z" fill="#FEC34B"/>
<path d="M385.401 100.528C373.846 120.323 375.599 142.859 389.314 150.865C403.03 158.871 423.515 149.315 435.069 129.52C446.623 109.726 444.871 87.1893 431.156 79.1834C417.44 71.1775 396.955 80.734 385.401 100.528Z" fill="#04C7D1"/>
</svg>
